<svg width="564" height="80" viewBox="0 0 564 80" fill="none" xmlns="http://www.w3.org/2000/svg">
<path d="M50.7761 34.8298H16.1529V5.61328H3.12305V73.1974H16.1529V43.7794H50.7761V73.1974H63.806V5.61328H50.7761V34.8298Z" fill="#4EBD88"/>
<path d="M121.433 43.5779C121.626 47.3824 121.2 51.193 120.174 54.8615C119.311 57.0603 117.901 59.0023 116.077 60.5033C112.081 63.623 107.104 65.2182 102.039 65.0033C98.413 65.0887 94.8176 64.3179 91.5449 62.7533C88.7685 61.4623 86.4329 59.3836 84.8285 56.7757C83.3845 54.2906 82.6624 49.8689 82.6624 43.5107V5.22705H73.0244V43.4939C72.8806 47.5138 73.2417 51.5359 74.099 55.466C74.7107 57.7415 75.6436 59.9182 76.8695 61.9305C77.9943 63.7072 79.3684 65.3132 80.9498 66.6992C86.3117 71.2776 93.3752 73.5724 102.14 73.5835C110.905 73.5947 117.901 71.2888 123.129 66.6656C124.718 65.3012 126.098 63.7116 127.226 61.9473C128.464 59.8894 129.408 57.6682 130.03 55.3484C130.91 51.4953 131.288 47.5447 131.155 43.5947V5.22705H121.433V43.5779Z" fill="#4EBD88"/>
<path d="M165.946 5.42871L136.915 73.3822H146.855L155.25 53.3505H184.081L193.098 73.3822H203.004L172.78 5.42871H165.946ZM159.23 44.7534L169.305 20.272L180.202 44.7534H159.23Z" fill="#4EBD88"/>
<path d="M221.759 57.9513C219.277 55.6125 217.319 52.7729 216.017 49.6205C214.714 46.4682 214.096 43.075 214.203 39.6658C214.119 36.2391 214.76 32.8332 216.082 29.6707C217.404 26.5082 219.379 23.6603 221.877 21.3132C224.448 18.8806 227.475 16.98 230.783 15.7208C234.091 14.4615 237.615 13.8684 241.153 13.9755C249.333 14.142 257.324 16.4584 264.325 20.6919V10.3486C256.89 6.93141 248.845 5.04146 240.666 4.79075C235.89 4.66912 231.138 5.49704 226.685 7.22647C222.231 8.95591 218.166 11.5524 214.724 14.8654C211.32 18.0271 208.623 21.8723 206.808 26.1491C204.994 30.4259 204.104 35.0378 204.196 39.6826C204.159 45.7495 205.748 51.7155 208.797 56.9606C211.757 62.1789 216.066 66.5052 221.272 69.4868C227.162 72.6716 233.789 74.2415 240.481 74.0372C249.03 74.2096 257.482 72.2107 265.047 68.2275V57.5651C257.961 62.3776 249.617 64.9995 241.052 65.1043C237.524 65.2382 234.004 64.6754 230.694 63.4481C227.384 62.2207 224.347 60.3528 221.759 57.9513Z" fill="#4EBD88"/>
<path d="M327.879 33.9902H289.915V4.77368H280.243V74.0201H289.915V44.6189H327.879V74.0201H337.551V4.77368H327.879V33.9902Z" fill="#4EBD88"/>
<path d="M366.196 4.42114H356.172V74.3896H366.196V4.42114Z" fill="#4EBD88"/>
<path d="M382.837 13.2869H406.831V74.44H416.906V13.2869H441.303V4.37085H382.837V13.2869Z" fill="#4EBD88"/>
<path d="M555.785 55.9026C555.785 55.5667 555.785 55.2309 555.785 54.8951C555.785 47.2719 551.66 41.0033 543.41 36.0891L536.022 31.7234C533.329 30.2697 530.89 28.3868 528.802 26.1488C527.603 24.8072 526.842 23.132 526.619 21.3465C526.74 20.3798 527.071 19.4511 527.587 18.6247C528.103 17.7984 528.792 17.0942 529.608 16.5611C531.88 15.0304 534.577 14.2548 537.315 14.3446C542.912 14.3446 548.151 16.6842 553.031 21.3633V8.70283C548.456 5.58085 543.039 3.92363 537.5 3.95095C532.237 3.73848 527.091 5.53985 523.11 8.98827C521.293 10.6109 519.855 12.6131 518.897 14.8532C517.939 17.0932 517.486 19.5163 517.569 21.951C517.569 22.1525 517.569 22.354 517.569 22.5555C517.569 22.757 517.569 23.2775 517.569 23.6301C517.519 26.9978 518.548 30.2931 520.507 33.0331C523.208 36.4244 526.552 39.2489 530.347 41.3447L537.701 45.8111C543.22 49.2589 546.169 52.8802 546.55 56.675C546.461 57.7465 546.153 58.7884 545.645 59.7359C545.137 60.6833 544.439 61.5161 543.595 62.1824C541.457 63.9102 538.769 64.8103 536.022 64.7179C529.149 64.7179 523.104 61.4044 517.888 54.7776V68.7477C523.111 72.7747 529.528 74.9433 536.123 74.9101C541.313 75.1427 546.387 73.3346 550.261 69.8727C552.089 68.188 553.53 66.1263 554.484 63.8303C555.438 61.5343 555.882 59.0586 555.785 56.5742C555.785 56.3727 555.785 56.1712 555.785 55.9697V55.9026Z" fill="#4EBD88"/>
<path d="M56.5524 1.09668H44.0598V30.0613H18.5541V6.10042L16.6064 4.42131L13.1474 1.63399L12.4926 1.09668H0V72.0726L5.03732 78.2181H18.6045V47.9942H44.0598V72.0726L49.0971 78.2181H62.6979V6.10042L57.2072 1.63399L56.5524 1.09668ZM56.0151 71.6192H45.8061V42.0333H11.9049V71.5689H1.67911V2.84295H11.9049V31.8076H45.8061V2.84295H56.0151V71.6192Z" fill="black"/>
<path d="M127.427 1.63399L126.773 1.09668H114.465V43.0744C114.527 45.757 114.251 48.4367 113.642 51.0502C113.144 52.913 112.225 54.6365 110.955 56.0875C109.72 57.5162 108.183 58.6533 106.456 59.4169C104.728 60.1805 102.853 60.5516 100.965 60.5035C98.4094 60.4982 95.903 59.8019 93.711 58.4886C91.3556 57.095 89.5393 54.9475 88.5561 52.3934C87.5456 49.2861 87.1242 46.0174 87.3136 42.7554V6.30192L82.2762 1.73474L82.1083 1.63399L81.5039 1.09668H68.8434V45.6602C68.6379 50.8226 69.3311 55.9814 70.8919 60.9065C72.9412 66.305 76.6435 70.9181 81.4703 74.0875C87.0223 77.6693 93.5391 79.4625 100.142 79.2256C105.407 79.2626 110.624 78.2226 115.472 76.1696C120.248 74.1181 124.396 70.8392 127.495 66.6659C129.449 64.098 130.906 61.1881 131.793 58.0856C132.809 54.0591 133.266 49.9121 133.153 45.761V6.30192L132.33 5.63027L127.427 1.63399ZM126.47 44.7031C126.47 51.4196 125.496 56.6416 123.566 60.3188C121.43 64.153 118.188 67.2543 114.263 69.2181C111.093 70.8469 107.649 71.8772 104.105 72.2573C102.495 72.4567 100.874 72.552 99.252 72.5427C90.1177 72.5427 82.9199 69.6771 77.6587 63.9457C75.0628 61.2529 73.1511 57.9765 72.0841 54.3916C70.941 49.7173 70.416 44.9132 70.5225 40.1024V2.84295H80.5971V42.2516C80.5971 54.0278 85.1531 60.7442 94.2651 62.4009C95.8449 62.6784 97.4465 62.8133 99.0505 62.8039C106.315 62.8039 111.403 60.0054 114.314 54.4084C115.545 52.08 116.161 48.3972 116.161 43.3598V2.84295H126.42L126.47 44.7031Z" fill="black"/>
<path d="M174.291 0.592773H161.631L134.329 72.4754L140.021 78.218H152.127L157.685 63.2571H182.536L186.247 73.5165L191.586 78.218H207.739L181.344 4.15248L174.291 0.592773ZM187.338 71.5687L182.301 56.9101H153.034L147.476 71.5687H136.528L137.066 70.175L162.873 2.30546H173.821L174.04 2.90994L198.135 71.5687H187.338Z" fill="black"/>
<path d="M168.18 17.2495L158.105 43.41L158.005 43.6451L156.561 47.4063H178.826L177.516 43.7123L169.12 20.02L168.18 17.2495ZM175.551 43.7123L176.24 45.7272H164.184L164.923 43.7123L170.43 28.8186L175.551 43.7123Z" fill="black"/>
<path d="M246.712 61.0071C243.846 61.1449 240.983 60.6896 238.302 59.6697C235.621 58.6497 233.179 57.0872 231.13 55.0798C229.169 53.026 227.642 50.5981 226.641 47.941C225.64 45.2839 225.185 42.4522 225.303 39.6152C225.303 32.7197 227.486 27.285 231.852 23.3111C233.656 21.6626 235.751 20.3644 238.031 19.4827C240.757 18.5488 243.63 18.1164 246.51 18.2066C255.728 18.4038 264.772 20.7496 272.923 25.0573V8.14873L267.617 3.41364C260.731 1.19582 253.543 0.0628603 246.309 0.0554221C236.552 -0.238029 227.051 3.20321 219.745 9.67671C219.158 10.214 218.57 10.7681 218.066 11.3558C210.824 18.6991 207.208 28.1189 207.219 39.6152C207.148 45.3092 208.192 50.962 210.292 56.2552C212.149 60.9951 215.013 65.2749 218.688 68.7981C220 70.0221 221.403 71.1448 222.885 72.1563C225.398 73.8909 228.109 75.3171 230.962 76.4045C235.785 78.2489 240.91 79.1771 246.074 79.1414C255.54 78.9932 264.9 77.1212 273.695 73.6172V61.7123L267.499 56.675C260.851 59.2362 253.83 60.6994 246.712 61.0071ZM267.063 69.0164L265.602 69.453C259.553 71.376 253.259 72.4221 246.913 72.5593C243.09 72.5882 239.278 72.1484 235.563 71.2496C232.399 70.4935 229.354 69.3071 226.512 67.7235C224.012 66.2777 221.7 64.5295 219.628 62.5183C217.7 60.6554 216.009 58.5633 214.59 56.2888C212.096 52.1885 210.362 47.6722 209.469 42.9566C209.111 41.0122 208.926 39.04 208.915 37.063C208.919 33.6008 209.445 30.159 210.477 26.854C211.526 23.4395 213.113 20.2143 215.178 17.2999C217.274 14.2972 219.79 11.6112 222.65 9.3241C224.324 8.01853 226.131 6.89291 228.04 5.96588C229.636 5.16492 231.286 4.47485 232.977 3.90058C237.09 2.48693 241.406 1.75526 245.755 1.73453C252.706 1.71188 259.621 2.72487 266.273 4.74013V15.1674C265.786 15.0163 265.316 14.8652 264.846 14.7476C258.949 12.8393 252.808 11.7875 246.611 11.6245C243.702 11.5982 240.802 11.9424 237.98 12.6487C236.005 13.1301 234.094 13.846 232.288 14.7812C231.936 14.9659 231.6 15.1674 231.264 15.3689C229.455 16.4785 227.796 17.816 226.327 19.3484C224.979 20.735 223.811 22.2864 222.852 23.9659C221.992 25.5293 221.284 27.171 220.736 28.8689C220.234 30.3653 219.847 31.8977 219.577 33.4529C219.37 34.7016 219.263 35.965 219.258 37.2309C219.263 38.4856 219.37 39.7379 219.577 40.9753C219.846 42.5159 220.239 44.0321 220.753 45.5089C221.33 47.1955 222.049 48.8301 222.902 50.3951C223.856 52.0935 225.024 53.6624 226.378 55.063C227.836 56.5815 229.477 57.9126 231.264 59.0257C233.318 60.2717 235.548 61.2001 237.88 61.7794C240.664 62.5059 243.532 62.8616 246.41 62.8373C252.393 62.6782 258.318 61.6256 263.99 59.7141C264.527 59.563 265.064 59.3951 265.669 59.1936C266.273 58.9921 266.643 58.8914 267.13 58.7235L267.063 69.0164Z" fill="black"/>
<path d="M322.741 1.09657V30.0612H297.202V6.10031L291.141 1.06299H278.732V72.0725L280.999 74.8598L283.719 78.218H297.202V47.9941H322.708V72.0725L323.178 72.6434L324.975 74.8598L327.712 78.218H341.312V6.10031L335.2 1.06299L322.741 1.09657ZM334.697 71.6191H324.488V42.0332H290.57V71.5687H280.495V2.84284H290.57V31.8075H324.488V2.84284H334.697V71.6191Z" fill="black"/>
<path d="M350.934 1.02938V72.2572L355.753 78.218H369.404V6.01633L363.443 0.979004L350.934 1.02938ZM362.687 71.5519H352.613V2.70849H362.687V71.5519Z" fill="black"/>
<path d="M377.162 1.0293V13.6394L382.669 19.4491H401.761V72.2571L406.915 78.2179H420.55V19.4491H445.736V6.31849L439.524 1.0293H377.162ZM439.037 12.7831H413.85V71.5518H403.49V12.7831H378.925V2.70841H439.037V12.7831Z" fill="black"/>
<path d="M563.374 52.729C563.26 51.6775 563.012 50.6448 562.636 49.6563L561.595 47.0704C561.169 46.1285 560.603 45.2566 559.915 44.4846C559.076 43.4436 558.404 42.6544 557.934 42.1003C557.095 41.1708 556.198 40.2959 555.248 39.4809L552.208 36.7775C551.537 36.173 550.294 35.0984 548.498 33.5704C547.692 32.9156 546.818 32.1264 545.744 31.2532C544.669 30.3801 543.947 29.7085 543.443 29.3055L541.764 27.8279C541.292 27.422 540.854 26.9783 540.455 26.5014C540.208 26.1879 539.94 25.8185 539.649 25.3932C539.392 25.0393 539.204 24.6406 539.095 24.2178C539.011 23.8261 538.971 23.4262 538.977 23.0256C538.945 22.2657 539.103 21.5098 539.438 20.8266C539.772 20.1434 540.272 19.5544 540.891 19.1133C542.384 18.1352 544.145 17.6479 545.929 17.7196C548.269 17.8766 550.553 18.5049 552.645 19.5667L553.317 19.8689L553.535 19.9696L560.822 23.2103V7.74573L555.18 2.7084C553.186 1.83733 551.103 1.18429 548.968 0.760637C546.759 0.291203 544.509 0.0437032 542.251 0.0218291C539.385 -0.107848 536.522 0.341245 533.834 1.3423C531.145 2.34336 528.685 3.87586 526.602 5.84834C526.139 6.29359 525.702 6.76448 525.292 7.25879C522.167 11.0251 520.52 15.7998 520.658 20.6917C520.632 22.8379 520.823 24.9814 521.229 27.0891C521.561 28.8194 522.18 30.4822 523.059 32.0088C523.723 33.1995 524.499 34.324 525.376 35.3671C526.299 36.4172 527.274 37.4203 528.298 38.3727C529.417 39.4137 531.589 41.1936 534.813 43.7122L536.106 44.7197C538.436 46.447 540.625 48.356 542.654 50.4287C543.832 51.5963 544.517 53.1706 544.568 54.8279C544.574 55.5547 544.409 56.2726 544.085 56.9233C543.761 57.5739 543.288 58.1389 542.705 58.5723C541.098 59.6828 539.162 60.2155 537.214 60.0835C532.345 60.0835 527.011 58.0966 521.212 54.1227V69.2347L523.512 73.0463L525.914 76.9922C530.354 78.4464 534.993 79.2053 539.665 79.2422C542.943 79.2351 546.185 78.5729 549.203 77.2944C552.046 76.1432 554.627 74.4299 556.792 72.2571C558.893 70.1306 560.568 67.6231 561.729 64.869C562.92 62.0654 563.532 59.0495 563.526 56.0033C563.526 54.8783 563.475 53.7869 563.374 52.729ZM556.037 60.5033C555.086 62.6795 553.717 64.6478 552.007 66.2962C550.148 68.0711 547.953 69.4563 545.551 70.3704C543.149 71.2845 540.588 71.709 538.02 71.619C532.798 71.613 527.641 70.4669 522.908 68.2608V57.6152C527.133 60.3151 532.033 61.7699 537.046 61.813C539.721 61.99 542.373 61.217 544.535 59.6302C545.567 58.7999 546.341 57.6935 546.768 56.4399C547.029 55.6376 547.159 54.7985 547.154 53.9548C547.154 49.3876 543.852 44.6413 537.247 39.716C533.067 36.8369 529.328 33.3638 526.149 29.4062C523.951 26.4579 522.772 22.8745 522.79 19.1972C522.713 16.8213 523.168 14.4582 524.124 12.2817C525.08 10.1052 526.512 8.17078 528.315 6.62073C529.029 6.00774 529.787 5.44661 530.581 4.94162C534.103 2.73541 538.198 1.61961 542.352 1.73452C546.357 1.80501 550.311 2.63697 554.005 4.18602V14.5965L553.619 14.4286C550.069 12.7083 546.194 11.7638 542.251 11.658C540.176 11.5856 538.122 12.0976 536.324 13.1357C535.942 13.3585 535.582 13.6171 535.249 13.9081C534.446 14.5181 533.79 15.3013 533.331 16.1996C532.872 17.0978 532.621 18.0879 532.596 19.0965C532.688 21.3066 533.633 23.3952 535.233 24.923C538.232 27.888 541.467 30.6058 544.904 33.0499C548.667 35.7268 551.934 39.0395 554.559 42.8391C556.498 45.9126 557.507 49.4814 557.464 53.1152C557.5 55.6498 557.014 58.1646 556.037 60.5033Z" fill="black"/>
<path fill-rule="evenodd" clip-rule="evenodd" d="M465.416 65.037C461.772 60.9735 457.121 58.6396 452.738 55.4996C449.833 53.4175 443.889 49.0687 444.712 44.8709C445.199 42.4194 447.986 40.9586 450.052 40.0183C454.716 38.0474 459.664 36.8289 464.71 36.4082C469.748 35.8876 475.759 35.6358 479.503 39.4977C480.854 40.9269 481.944 42.5803 482.727 44.3839C484.443 48.8017 485.331 53.4974 485.347 58.2366C485.531 62.9885 485.565 70.4605 481.552 73.8691C477.539 77.2777 472.434 72.7609 469.664 69.8224C468.169 68.2441 466.792 66.5985 465.416 65.037Z" fill="#4EBD88"/>
<path fill-rule="evenodd" clip-rule="evenodd" d="M480.645 43.0576C479.369 40.6229 477.875 37.6677 475.138 36.6434C474.711 36.3491 474.24 36.1225 473.744 35.9718C471.659 35.3011 469.486 34.9446 467.296 34.9139C463.736 34.8213 460.177 35.1254 456.684 35.8206C454.382 36.2531 452.107 36.8137 449.867 37.4997C447.421 38.1334 445.072 39.0935 442.882 40.3542C439.91 42.302 439.423 46.3822 440.632 49.4886C442.207 52.7475 444.684 55.4864 447.768 57.3804C450.908 59.6472 454.3 61.595 457.524 63.7442C460.748 65.8935 462.931 69.7386 465.483 72.8786C467.202 75.1381 469.257 77.1201 471.578 78.7554C472.691 79.486 473.977 79.911 475.306 79.9876C476.635 80.0643 477.961 79.7899 479.151 79.192C483.399 76.9252 484.188 70.914 484.574 66.6323C485.536 58.5602 484.173 50.3813 480.645 43.0576ZM481.787 59.261C481.795 59.3503 481.795 59.4403 481.787 59.5296C481.812 59.9098 481.812 60.2913 481.787 60.6714C481.79 63.4365 481.383 66.1866 480.578 68.8319C479.822 71.0651 478.664 73.3319 476.162 73.8692C471.393 74.8935 466.793 70.2592 464.005 67.0353C462.561 65.3562 461.369 63.5259 459.774 61.9979C458.22 60.5549 456.533 59.2619 454.737 58.136L454.199 57.8002C452.285 56.608 450.32 55.483 448.457 54.2069C446.623 53.0366 444.932 51.656 443.419 50.0931C442.835 49.4406 442.333 48.7188 441.925 47.9438C441.474 47.1237 441.27 46.1907 441.337 45.2572C441.606 42.5539 444.511 41.0091 446.71 40.0184C451.055 38.2501 455.619 37.0754 460.278 36.5259L461.806 36.3412C467.246 35.7031 472.686 35.955 475.86 38.0203C476.526 38.4624 477.097 39.0333 477.539 39.6994C479.2 42.3064 480.309 45.2267 480.796 48.2796C481.547 51.7882 481.89 55.3715 481.821 58.9588L481.787 59.261Z" fill="black"/>
<path fill-rule="evenodd" clip-rule="evenodd" d="M494.279 19.9025C493.859 20.4901 493.372 21.0946 492.852 21.6991C489.494 25.4435 484.288 28.617 479.939 27.7103C479.65 27.6476 479.364 27.5691 479.083 27.4752C478.144 27.1751 477.296 26.6443 476.615 25.9315C475.935 25.2187 475.444 24.3466 475.188 23.395C473.022 15.6207 483.936 1.16361 493.406 4.60578C494.711 5.04228 495.818 5.92919 496.529 7.10766C498.594 10.617 496.798 16.3931 494.279 19.9025Z" fill="#4EBD88"/>
<path fill-rule="evenodd" clip-rule="evenodd" d="M509.492 35.4005C509.072 35.9211 508.652 36.4248 508.216 36.8781L507.746 37.3987C501.835 43.4603 495.287 43.8632 492.012 40.8912C491.707 40.5741 491.437 40.225 491.206 39.8502C489.527 37.13 489.729 32.8147 493.188 27.5927C493.732 26.7685 494.332 25.9831 494.984 25.2419C499.283 20.6076 504.925 18.5255 509.408 20.2046C510.139 20.4792 510.811 20.8894 511.389 21.4136C511.701 21.6829 511.967 22.0004 512.178 22.3539C514.462 25.9304 512.212 31.9584 509.492 35.4005Z" fill="#4EBD88"/>
<path fill-rule="evenodd" clip-rule="evenodd" d="M507.712 57.8505L507.561 57.9848C505.674 59.5566 503.461 60.6885 501.083 61.2984C498.704 61.9083 496.219 61.9809 493.809 61.5109C492.649 61.2339 491.562 60.713 490.619 59.9829C489.824 59.4138 489.174 58.6661 488.721 57.8001C485.363 51.2684 500.693 43.1247 508.317 48.9008C509.289 49.5308 510.036 50.4541 510.449 51.537C511.104 53.6695 509.895 55.9531 507.712 57.8505Z" fill="#4EBD88"/>
<path fill-rule="evenodd" clip-rule="evenodd" d="M507.343 47.3224C506.752 46.785 506.077 46.3483 505.344 46.0294C504.168 45.4629 502.9 45.1104 501.6 44.9884C504.684 43.4704 507.37 41.2506 509.441 38.507C512.649 34.4604 514.831 29.0369 512.8 23.9492C511.945 21.8913 510.377 20.2103 508.384 19.2141L507.712 18.9286C503.346 17.2495 498.897 18.9286 495.27 21.5816C495.301 21.5329 495.329 21.4824 495.354 21.4305C495.572 21.0947 495.79 20.7421 495.992 20.3559C496.387 19.6201 496.73 18.8569 497.016 18.0723C498.183 14.9601 498.123 11.5206 496.848 8.45099C496.213 7.11086 495.33 5.90303 494.246 4.89129L494.145 4.79054C493.582 4.33488 492.967 3.94609 492.315 3.63195C491.778 3.38386 491.215 3.19795 490.636 3.07785C489.244 2.80055 487.812 2.80055 486.421 3.07785C484.353 3.52797 482.398 4.39653 480.678 5.63009C478.852 6.89392 477.213 8.40881 475.809 10.1301C473.682 12.734 472.306 15.869 471.829 19.1973C471.599 20.6271 471.656 22.0884 471.997 23.4958C472.521 26.1391 474.019 28.4888 476.195 30.0779C477.228 30.6507 478.375 30.989 479.553 31.0686C482.96 31.0751 486.272 29.9533 488.973 27.8783C489.141 27.7439 489.309 27.6432 489.46 27.5089C489.242 27.8447 489.024 28.1973 488.839 28.5331C485.917 33.5705 486.001 40.9082 491.022 44.6862C491.766 45.2291 492.586 45.6591 493.456 45.9623C493.708 46.0462 493.96 46.0966 494.229 46.1638L494.749 46.2477C493.574 46.6879 492.448 47.2507 491.391 47.9268C489.957 48.7842 488.674 49.8737 487.596 51.1507C487.178 51.6467 486.807 52.1808 486.488 52.7459C485.946 53.9373 485.717 55.2473 485.823 56.5519C485.929 57.8566 486.366 59.1126 487.093 60.2011C487.873 61.6055 488.971 62.8074 490.3 63.7104C491.739 64.5598 493.349 65.0774 495.014 65.2256C496.678 65.3737 498.355 65.1487 499.921 64.5668C500.887 64.2732 501.83 63.9084 502.742 63.4754L503.212 63.2235C503.558 63.0581 503.894 62.8731 504.219 62.6694C506.779 61.3959 508.859 59.3284 510.147 56.7757C510.56 55.4958 510.66 54.1352 510.438 52.8086C510.216 51.4819 509.678 50.2281 508.871 49.1526C508.442 48.479 507.929 47.8638 507.343 47.3224ZM477.807 27.7104C477.518 27.6477 477.232 27.5692 476.951 27.4753C476.006 27.1799 475.151 26.6513 474.464 25.9382C473.777 25.225 473.281 24.3504 473.022 23.3951C470.889 15.6208 481.803 1.16366 491.274 4.60584C492.579 5.04233 493.686 5.92924 494.397 7.10771C496.462 10.617 494.665 16.3932 492.147 19.9025C491.727 20.4902 491.24 21.0947 490.719 21.6992C487.361 25.4436 482.156 28.6003 477.807 27.7104ZM489.695 40.8914C489.39 40.5742 489.12 40.2252 488.889 39.8503C487.21 37.1302 487.412 32.8149 490.871 27.5928C491.414 26.7687 492.015 25.9832 492.667 25.2421C496.966 20.6077 502.608 18.5256 507.091 20.2048C507.821 20.4793 508.494 20.8895 509.072 21.4137C509.384 21.6831 509.65 22.0005 509.861 22.354C512.128 25.8633 509.861 31.8746 507.158 35.3335C506.738 35.854 506.318 36.3578 505.882 36.8111L505.412 37.3317C499.518 43.4604 492.969 43.8634 489.695 40.8914ZM506.184 56.5071C506.13 56.5553 506.085 56.612 506.05 56.675C504.356 58.4533 502.29 59.8347 499.999 60.7202C497.709 61.6056 495.251 61.9731 492.802 61.7963C491.616 61.6481 490.473 61.2595 489.443 60.6545C488.589 60.1764 487.854 59.5104 487.294 58.7067C483.264 52.5948 497.369 42.7216 505.764 47.5574C506.784 48.0786 507.608 48.9148 508.115 49.9418C509.055 51.9567 508.132 54.3746 506.184 56.5071Z" fill="black"/>
<path fill-rule="evenodd" clip-rule="evenodd" d="M471.914 16.0576C471.798 19.8856 470.469 23.5779 468.119 26.6024C466.89 28.3037 465.048 29.46 462.981 29.8262C462.142 29.9433 461.289 29.8922 460.47 29.676C459.651 29.4598 458.884 29.0827 458.212 28.5669C457.34 27.8382 456.655 26.9113 456.214 25.8635C455.081 22.5406 455.219 18.9157 456.6 15.6882C457.127 14.1234 457.903 12.6546 458.901 11.3393C460.107 9.746 461.848 8.64268 463.804 8.23291C464.742 8.03235 465.71 8.02418 466.651 8.2089C467.592 8.39361 468.486 8.76737 469.278 9.30754C469.431 9.41577 469.576 9.53355 469.714 9.66015C470.513 10.5097 471.123 11.5194 471.502 12.6223C471.881 13.7253 472.022 14.8962 471.914 16.0576Z" fill="#4EBD88"/>
<path fill-rule="evenodd" clip-rule="evenodd" d="M470.671 16.0406C470.572 14.3622 470.114 12.7246 469.328 11.2383C468.546 9.87719 467.399 8.76235 466.016 8.02035C464.633 7.27836 463.069 6.93893 461.503 7.04058C461.163 7.06371 460.825 7.11994 460.496 7.20849C457.137 8.132 454.736 11.507 453.628 14.7309C451.949 19.4996 451.831 25.5611 454.4 30.0276C455.125 31.454 456.361 32.5543 457.861 33.1085C459.362 33.6627 461.016 33.6298 462.494 33.0164C467.38 31.035 469.932 25.5444 470.57 20.591C470.57 20.1544 470.671 19.7346 470.705 19.2981C470.777 18.213 470.766 17.124 470.671 16.0406ZM464.341 27.3074C463.35 28.4908 462.019 29.3408 460.529 29.7421H460.428C459.485 29.9061 458.514 29.7833 457.641 29.3895C451.361 26.535 453.057 14.9996 458.212 10.0294C459.26 8.96643 460.641 8.29644 462.124 8.132C462.582 8.08126 463.044 8.08126 463.501 8.132H463.619C463.983 8.19572 464.342 8.2855 464.693 8.40066C471.158 10.8857 469.042 22.1693 464.341 27.3074Z" fill="black"/>
</svg>
